<?xml version="1.0" encoding="UTF-8"?>
<svg width="24px" height="24px" viewBox="0 0 24 24" version="1.1" xmlns="http://www.w3.org/2000/svg" xmlns:xlink="http://www.w3.org/1999/xlink">
    <!-- Generator: Sketch 52.6 (67491) - http://www.bohemiancoding.com/sketch -->
    <title>Untitled 2</title>
    <desc>Created with Sketch.</desc>
    <g id="Page-1" stroke="none" stroke-width="1" fill="none" fill-rule="evenodd">
        <g id="round-wifi-24px">
            <path d="M2.06,10.06 C2.57,10.57 3.38,10.62 3.93,10.16 C8.6,6.32 15.38,6.32 20.06,10.15 C20.62,10.61 21.44,10.57 21.95,10.06 C22.54,9.47 22.5,8.49 21.85,7.96 C16.14,3.29 7.88,3.29 2.16,7.96 C1.51,8.48 1.46,9.46 2.06,10.06 Z M6.09,14.09 C6.58,14.58 7.35,14.63 7.92,14.22 C10.36,12.49 13.64,12.49 16.08,14.22 C16.65,14.62 17.42,14.58 17.91,14.09 L17.92,14.08 C18.52,13.48 18.48,12.46 17.79,11.97 C14.35,9.48 9.66,9.48 6.21,11.97 C5.52,12.47 5.48,13.48 6.09,14.09 Z" id="Shape" fill="#000000" fill-rule="nonzero"></path>
        </g>
    </g>
</svg>
